# xmcd
#
# Track frame offsets: 
#        150
#        42421
#        88901
#        126281
#        169335
#        209907
#
# Disc length: 3222 seconds
#
# Revision: 4
# Processed by: cddbd v1.5.2PL0 Copyright (c) Steve Scherf et al.
# Submitted via: ExactAudioCopyFreeDBPlugin 1.0
#
DISCID=5d0c9406
DTITLE=Sonny Clark - Cool Struttin' [RVG RM 1999]
DYEAR=1958
DGENRE=Jazz: Hard Bop
TTITLE0=Cool Struttin'
TTITLE1=Blue Minor
TTITLE2=Sippin' at Bells
TTITLE3=Deep Night
TTITLE4=Royal Flush
TTITLE5=Lover
EXTD=
EXTT0=
EXTT1=
EXTT2=
EXTT3=
EXTT4=
EXTT5=
PLAYORDER=
